<svg width="40" height="40" viewBox="0 0 40 40" fill="none" xmlns="http://www.w3.org/2000/svg">
    <path d="M18.1698 5.07145C18.9187 3.55399 21.0826 3.55398 21.8315 5.07144L25.8751 13.2648L34.917 14.5786C36.5916 14.8219 37.2602 16.8799 36.0485 18.0611L29.5057 24.4387L31.0503 33.444C31.3363 35.1118 29.5857 36.3837 28.0879 35.5963L20.0006 31.3445L11.9133 35.5963C10.4155 36.3837 8.66493 35.1118 8.95099 33.444L10.4955 24.4387L3.95277 18.0611C2.74101 16.8799 3.40967 14.8219 5.08429 14.5786L14.1261 13.2648L18.1698 5.07145ZM20.0006 6.06916L15.9847 14.2064C15.6873 14.809 15.1124 15.2267 14.4474 15.3233L5.46742 16.6282L11.9654 22.9621C12.4466 23.4312 12.6662 24.107 12.5526 24.7693L11.0186 33.713L19.0506 29.4903C19.6453 29.1776 20.3559 29.1776 20.9507 29.4903L28.9826 33.713L27.4487 24.7693C27.3351 24.107 27.5547 23.4312 28.0359 22.9621L34.5338 16.6282L25.5538 15.3233C24.8889 15.2267 24.314 14.809 24.0166 14.2064L20.0006 6.06916Z" fill="#CED4DA"/>
</svg>
